<svg width="550.6625px" height="122px" xmlns="http://www.w3.org/2000/svg" viewBox="-25.33125000000001 14 550.6625 122" style="background: rgba(0, 0, 0, 0);" preserveAspectRatio="xMidYMid"><defs><filter id="editing-raise" x="-100%" y="-100%" width="300%" height="300%"><feFlood flood-color="#ccc" result="flood-surface"></feFlood><feFlood flood-color="#777" result="flood-extrude"></feFlood><feMorphology operator="erode" in="SourceAlpha" radius="1" result="erode"></feMorphology><feConvolveMatrix in="erode" result="shadow" order="11,8" divisor="1" kernelMatrix="0 0 0 1 1 1 1 1 0 0 0 0 0 1 0 0 0 0 0 1 0 0 0 0 1 0 0 0 0 0 1 0 0 0 0 1 0 0 0 0 0 1 0 0 0 0 1 0 0 0 0 0 1 0 0 0 0 0 1 0 0 0 1 0 0 0 0 0 0 1 1 0 1 1 0 0 0 0 0 0 0 0 1 0 0 0 0 0"></feConvolveMatrix><feOffset dx="0" dy="4" in="shadow" result="offset"></feOffset><feGaussianBlur in="offset" stdDeviation="0.2" result="blur"></feGaussianBlur><feComposite operator="in" in="flood-extrude" in2="blur" result="extrude"></feComposite><feMorphology operator="erode" in="SourceAlpha" radius="1" result="erode2"></feMorphology><feConvolveMatrix in="erode2" result="out" order="4,4" divisor="1" kernelMatrix="0 1 1 0 1 0 0 1 1 0 0 1 0 1 1 0 "></feConvolveMatrix><feComposite operator="in" in="flood-surface" in2="out" result="text"></feComposite><feMerge><feMergeNode in="extrude"></feMergeNode><feMergeNode in="text"></feMergeNode></feMerge></filter></defs><g filter="url(#editing-raise)"><g transform="translate(55.184995889663696, 97.39999961853027)"><path d="M28.42-9.86L28.42-9.86L28.42-9.86Q29.63-8.32 29.63-5.82L29.63-5.82L29.63-5.82Q29.63-2.37 27.07-0.54L27.07-0.54L27.07-0.54Q24.51 1.28 20.48 1.28L20.48 1.28L20.48 1.28Q18.18 1.28 14.66 0.77L14.66 0.77L14.66 0.77Q7.74-0.32 5.63-0.32L5.63-0.32L5.63-0.32Q3.52-0.32 2.69-0.22L2.69-0.22L2.69-0.22Q1.86-0.13 0.51 0L0.51 0L8.38-42.24L35.97-42.24L35.97-42.24Q35.97-38.34 34.08-36.29L34.08-36.29L34.08-36.29Q32.19-34.24 28.48-34.24L28.48-34.24L28.48-34.24Q24.77-34.24 20.99-35.97L20.99-35.97L19.01-24.77L30.40-24.77L30.40-24.77Q30.40-21.38 28.74-19.49L28.74-19.49L28.74-19.49Q27.07-17.60 24.29-17.60L24.29-17.60L24.29-17.60Q21.50-17.60 19.78-18.24L19.78-18.24L19.78-18.24Q18.05-18.88 17.86-19.07L17.86-19.07L15.55-6.98L15.55-6.98Q17.09-6.78 19.97-6.78L19.97-6.78L19.97-6.78Q24.90-6.78 28.42-9.86ZM37.89-10.37L37.89-10.37L37.89-10.37Q35.84-11.84 35.84-14.66L35.84-14.66L35.84-14.66Q35.84-16.19 36.61-17.44L36.61-17.44L36.61-17.44Q37.38-18.69 38.91-18.88L38.91-18.88L51.52-18.88L51.52-18.88Q53.63-18.88 54.27-20.16L54.27-20.16L54.27-20.16Q55.30-19.58 55.74-18.37L55.74-18.37L55.74-18.37Q56.19-17.15 56.19-15.87L56.19-15.87L56.19-15.87Q56.19-14.59 55.20-13.34L55.20-13.34L55.20-13.34Q54.21-12.10 52.74-11.97L52.74-11.97L41.02-11.97L41.02-11.97Q39.68-11.97 39.04-11.55L39.04-11.55L39.04-11.55Q38.40-11.14 37.89-10.37ZM94.02-13.25L94.02-13.25L94.02-13.25Q95.68-12.03 95.68-9.44L95.68-9.44L95.68-9.44Q95.68-6.85 94.56-5.02L94.56-5.02L94.56-5.02Q93.44-3.20 91.26-1.79L91.26-1.79L91.26-1.79Q86.59 1.22 78.43 1.22L78.43 1.22L78.43 1.22Q70.27 1.22 65.82-3.04L65.82-3.04L65.82-3.04Q61.38-7.30 61.38-14.85L61.38-14.85L61.38-14.85Q61.38-25.54 66.94-33.66L66.94-33.66L66.94-33.66Q71.17-39.68 78.72-42.24L78.72-42.24L78.72-42.24Q82.62-43.52 86.46-43.52L86.46-43.52L86.46-43.52Q90.30-43.52 92.67-43.01L92.67-43.01L92.67-43.01Q95.04-42.50 96.83-41.47L96.83-41.47L96.83-41.47Q100.74-39.23 100.74-35.65L100.74-35.65L100.74-35.65Q100.74-32.38 97.66-29.95L97.66-29.95L97.66-29.95Q94.85-27.78 92.54-27.78L92.54-27.78L92.54-27.78Q90.24-27.78 89.28-28.10L89.28-28.10L89.28-28.10Q89.54-30.40 89.54-31.90L89.54-31.90L89.54-31.90Q89.54-33.41 89.47-34.50L89.47-34.50L89.47-34.50Q89.41-35.58 89.09-36.61L89.09-36.61L89.09-36.61Q88.45-38.98 86.50-38.98L86.50-38.98L86.50-38.98Q84.54-38.98 82.59-37.15L82.59-37.15L82.59-37.15Q80.64-35.33 78.98-32.26L78.98-32.26L78.98-32.26Q75.20-25.28 75.20-17.02L75.20-17.02L75.20-17.02Q75.20-13.06 77.44-10.78L77.44-10.78L77.44-10.78Q79.68-8.51 84.48-8.51L84.48-8.51L84.48-8.51Q88.06-8.51 91.46-10.88L91.46-10.88L91.46-10.88Q92.93-11.90 94.02-13.25ZM114.94 1.28L114.94 1.28L114.94 1.28Q100.86 1.28 100.86-11.97L100.86-11.97L100.86-11.97Q100.86-21.38 106.05-27.46L106.05-27.46L106.05-27.46Q111.55-33.92 121.09-33.92L121.09-33.92L121.09-33.92Q128-33.92 131.52-30.72L131.52-30.72L131.52-30.72Q135.04-27.52 135.04-20.80L135.04-20.80L135.04-20.80Q135.04-10.56 129.54-4.61L129.54-4.61L129.54-4.61Q124.16 1.28 114.94 1.28ZM116.61-26.56L116.61-26.56L116.61-26.56Q115.84-24.83 115.23-22.24L115.23-22.24L115.23-22.24Q114.62-19.65 113.86-15.55L113.86-15.55L113.86-15.55Q113.09-11.46 113.09-6.40L113.09-6.40L113.09-6.40Q113.09-4.74 113.63-3.65L113.63-3.65L113.63-3.65Q114.18-2.56 115.65-2.56L115.65-2.56L115.65-2.56Q117.12-2.56 118.05-3.26L118.05-3.26L118.05-3.26Q118.98-3.97 119.68-5.63L119.68-5.63L119.68-5.63Q120.96-8.58 121.98-14.05L121.98-14.05L121.98-14.05Q123.01-19.52 123.10-21.89L123.10-21.89L123.10-21.89Q123.20-24.26 123.20-26.02L123.20-26.02L123.20-26.02Q123.20-27.78 122.69-28.93L122.69-28.93L122.69-28.93Q122.18-30.08 120.74-30.08L120.74-30.08L120.74-30.08Q119.30-30.08 118.34-29.18L118.34-29.18L118.34-29.18Q117.38-28.29 116.61-26.56ZM184.90 1.28L184.90 1.28L184.90 1.28Q177.15 1.28 177.15-4.74L177.15-4.74L177.15-4.74Q177.15-7.36 178.27-12.45L178.27-12.45L178.27-12.45Q179.39-17.54 179.78-19.58L179.78-19.58L179.78-19.58Q180.67-24.26 180.67-25.73L180.67-25.73L180.67-25.73Q180.67-28.99 178.24-28.99L178.24-28.99L178.24-28.99Q176.64-28.99 175.10-26.78L175.10-26.78L175.10-26.78Q173.57-24.58 172.86-20.16L172.86-20.16L168.90 0L156.42 1.28L159.87-16.13L159.87-16.13Q160.45-19.01 160.96-22.27L160.96-22.27L160.96-22.27Q161.47-25.54 161.47-26.05L161.47-26.05L161.47-26.05Q161.47-28.99 159.30-28.99L159.30-28.99L159.30-28.99Q157.82-28.99 156.22-26.82L156.22-26.82L156.22-26.82Q154.62-24.64 153.73-20.16L153.73-20.16L149.82 0L137.22 1.28L143.94-32.64L154.37-33.92L153.28-27.46L153.28-27.46Q154.94-30.91 158.02-32.42L158.02-32.42L158.02-32.42Q161.09-33.92 165.89-33.92L165.89-33.92L165.89-33.92Q168.64-33.92 170.43-32.58L170.43-32.58L170.43-32.58Q172.22-31.23 172.80-29.06L172.80-29.06L172.80-29.06Q173.89-31.30 176.67-32.61L176.67-32.61L176.67-32.61Q179.46-33.92 182.88-33.92L182.88-33.92L182.88-33.92Q186.30-33.92 188-33.18L188-33.18L188-33.18Q189.70-32.45 190.72-31.23L190.72-31.23L190.72-31.23Q192.45-28.99 192.45-24.90L192.45-24.90L192.45-24.90Q192.45-20.86 190.72-12.48L190.72-12.48L190.72-12.48Q189.82-8.38 189.82-6.88L189.82-6.88L189.82-6.88Q189.82-5.38 190.69-4.48L190.69-4.48L190.69-4.48Q191.55-3.58 192.83-3.46L192.83-3.46L192.83-3.46Q192.19-1.28 189.98 0L189.98 0L189.98 0Q187.78 1.28 184.90 1.28ZM243.84 1.28L243.84 1.28L243.84 1.28Q236.10 1.28 236.10-4.74L236.10-4.74L236.10-4.74Q236.10-7.36 237.22-12.45L237.22-12.45L237.22-12.45Q238.34-17.54 238.72-19.58L238.72-19.58L238.72-19.58Q239.62-24.26 239.62-25.73L239.62-25.73L239.62-25.73Q239.62-28.99 237.18-28.99L237.18-28.99L237.18-28.99Q235.58-28.99 234.05-26.78L234.05-26.78L234.05-26.78Q232.51-24.58 231.81-20.16L231.81-20.16L227.84 0L215.36 1.28L218.82-16.13L218.82-16.13Q219.39-19.01 219.90-22.27L219.90-22.27L219.90-22.27Q220.42-25.54 220.42-26.05L220.42-26.05L220.42-26.05Q220.42-28.99 218.24-28.99L218.24-28.99L218.24-28.99Q216.77-28.99 215.17-26.82L215.17-26.82L215.17-26.82Q213.57-24.64 212.67-20.16L212.67-20.16L208.77 0L196.16 1.28L202.88-32.64L213.31-33.92L212.22-27.46L212.22-27.46Q213.89-30.91 216.96-32.42L216.96-32.42L216.96-32.42Q220.03-33.92 224.83-33.92L224.83-33.92L224.83-33.92Q227.58-33.92 229.38-32.58L229.38-32.58L229.38-32.58Q231.17-31.23 231.74-29.06L231.74-29.06L231.74-29.06Q232.83-31.30 235.62-32.61L235.62-32.61L235.62-32.61Q238.40-33.92 241.82-33.92L241.82-33.92L241.82-33.92Q245.25-33.92 246.94-33.18L246.94-33.18L246.94-33.18Q248.64-32.45 249.66-31.23L249.66-31.23L249.66-31.23Q251.39-28.99 251.39-24.90L251.39-24.90L251.39-24.90Q251.39-20.86 249.66-12.48L249.66-12.48L249.66-12.48Q248.77-8.38 248.77-6.88L248.77-6.88L248.77-6.88Q248.77-5.38 249.63-4.48L249.63-4.48L249.63-4.48Q250.50-3.58 251.78-3.46L251.78-3.46L251.78-3.46Q251.14-1.28 248.93 0L248.93 0L248.93 0Q246.72 1.28 243.84 1.28ZM282.62-10.82L282.62-10.82L282.62-10.82Q284.22-9.73 284.22-7.33L284.22-7.33L284.22-7.33Q284.22-4.93 283.01-3.39L283.01-3.39L283.01-3.39Q281.79-1.86 279.81-0.83L279.81-0.83L279.81-0.83Q275.71 1.28 271.30 1.28L271.30 1.28L271.30 1.28Q266.88 1.28 264.29 0.32L264.29 0.32L264.29 0.32Q261.70-0.64 259.97-2.43L259.97-2.43L259.97-2.43Q256.58-5.82 256.58-12.03L256.58-12.03L256.58-12.03Q256.58-21.70 261.82-27.58L261.82-27.58L261.82-27.58Q267.46-33.92 277.25-33.92L277.25-33.92L277.25-33.92Q283.33-33.92 286.34-31.36L286.34-31.36L286.34-31.36Q288.58-29.44 288.58-26.30L288.58-26.30L288.58-26.30Q288.58-15.04 269.12-15.04L269.12-15.04L269.12-15.04Q268.86-13.38 268.86-11.97L268.86-11.97L268.86-11.97Q268.86-9.02 270.18-7.90L270.18-7.90L270.18-7.90Q271.49-6.78 273.92-6.78L273.92-6.78L273.92-6.78Q276.35-6.78 278.94-7.90L278.94-7.90L278.94-7.90Q281.54-9.02 282.62-10.82ZM269.57-17.79L269.57-17.79L269.57-17.79Q274.11-17.79 276.74-20.61L276.74-20.61L276.74-20.61Q279.36-23.30 279.36-27.58L279.36-27.58L279.36-27.58Q279.36-29.06 278.82-29.86L278.82-29.86L278.82-29.86Q278.27-30.66 277.18-30.66L277.18-30.66L277.18-30.66Q276.10-30.66 275.17-30.24L275.17-30.24L275.17-30.24Q274.24-29.82 273.28-28.42L273.28-28.42L273.28-28.42Q270.91-25.22 269.57-17.79ZM310.78-17.98L310.78-17.98L310.78-17.98Q313.09-22.08 313.09-26.24L313.09-26.24L313.09-26.24Q313.09-28.99 311.10-28.99L311.10-28.99L311.10-28.99Q309.57-28.99 307.97-26.37L307.97-26.37L307.97-26.37Q306.30-23.74 305.79-20.35L305.79-20.35L302.46 0L289.22 1.28L295.74-32.64L306.30-33.92L305.15-27.46L305.15-27.46Q308.29-33.92 315.33-33.92L315.33-33.92L315.33-33.92Q319.04-33.92 321.06-32L321.06-32L321.06-32Q323.07-30.08 323.07-26.14L323.07-26.14L323.07-26.14Q323.07-22.21 320.48-19.71L320.48-19.71L320.48-19.71Q317.89-17.22 313.47-17.22L313.47-17.22L313.47-17.22Q311.55-17.22 310.78-17.98ZM355.52-26.62L355.52-26.62L355.52-26.62Q355.52-23.94 353.28-22.27L353.28-22.27L353.28-22.27Q351.04-20.61 347.39-20.61L347.39-20.61L347.39-20.61Q345.86-20.61 344.96-21.06L344.96-21.06L344.96-21.06Q345.66-22.72 345.89-24.80L345.89-24.80L345.89-24.80Q346.11-26.88 346.11-27.46L346.11-27.46L346.11-27.46Q346.11-30.14 344.26-30.14L344.26-30.14L344.26-30.14Q342.98-30.14 341.54-28.54L341.54-28.54L341.54-28.54Q340.10-26.94 338.88-24.45L338.88-24.45L338.88-24.45Q336.19-18.69 336.19-12.86L336.19-12.86L336.19-12.86Q336.19-9.66 337.41-8.22L337.41-8.22L337.41-8.22Q338.62-6.78 341.31-6.78L341.31-6.78L341.31-6.78Q345.02-6.78 347.97-9.86L347.97-9.86L347.97-9.86Q348.80-10.82 349.25-11.90L349.25-11.90L349.25-11.90Q351.68-10.62 351.68-7.10L351.68-7.10L351.68-7.10Q351.68-3.52 347.71-1.15L347.71-1.15L347.71-1.15Q343.62 1.28 337.09 1.28L337.09 1.28L337.09 1.28Q324.10 1.28 324.10-12.48L324.10-12.48L324.10-12.48Q324.10-22.53 329.79-28.29L329.79-28.29L329.79-28.29Q335.30-33.92 345.41-33.92L345.41-33.92L345.41-33.92Q355.52-33.92 355.52-26.62ZM383.17-10.82L383.17-10.82L383.17-10.82Q384.77-9.73 384.77-7.33L384.77-7.33L384.77-7.33Q384.77-4.93 383.55-3.39L383.55-3.39L383.55-3.39Q382.34-1.86 380.35-0.83L380.35-0.83L380.35-0.83Q376.26 1.28 371.84 1.28L371.84 1.28L371.84 1.28Q367.42 1.28 364.83 0.32L364.83 0.32L364.83 0.32Q362.24-0.64 360.51-2.43L360.51-2.43L360.51-2.43Q357.12-5.82 357.12-12.03L357.12-12.03L357.12-12.03Q357.12-21.70 362.37-27.58L362.37-27.58L362.37-27.58Q368-33.92 377.79-33.92L377.79-33.92L377.79-33.92Q383.87-33.92 386.88-31.36L386.88-31.36L386.88-31.36Q389.12-29.44 389.12-26.30L389.12-26.30L389.12-26.30Q389.12-15.04 369.66-15.04L369.66-15.04L369.66-15.04Q369.41-13.38 369.41-11.97L369.41-11.97L369.41-11.97Q369.41-9.02 370.72-7.90L370.72-7.90L370.72-7.90Q372.03-6.78 374.46-6.78L374.46-6.78L374.46-6.78Q376.90-6.78 379.49-7.90L379.49-7.90L379.49-7.90Q382.08-9.02 383.17-10.82ZM370.11-17.79L370.11-17.79L370.11-17.79Q374.66-17.79 377.28-20.61L377.28-20.61L377.28-20.61Q379.90-23.30 379.90-27.58L379.90-27.58L379.90-27.58Q379.90-29.06 379.36-29.86L379.36-29.86L379.36-29.86Q378.82-30.66 377.73-30.66L377.73-30.66L377.73-30.66Q376.64-30.66 375.71-30.24L375.71-30.24L375.71-30.24Q374.78-29.82 373.82-28.42L373.82-28.42L373.82-28.42Q371.46-25.22 370.11-17.79Z"></path></g></g><style>text {
  font-size: 64px;
  font-family: Arial Black;
  dominant-baseline: central;
  text-anchor: middle;
}</style></svg>